<?xml version="1.0" encoding="UTF-8"?>
<svg width="220px" height="26px" viewBox="0 0 220 26" version="1.1" xmlns="http://www.w3.org/2000/svg" xmlns:xlink="http://www.w3.org/1999/xlink">
    <!-- Generator: sketchtool 53.2 (72643) - https://sketchapp.com -->
    <title>B9964800-5DEC-442F-9581-88EF8DC46A98</title>
    <desc>Created with sketchtool.</desc>
    <g id="FINAL" stroke="none" stroke-width="1" fill="none" fill-rule="evenodd">
        <g id="1-Login-1.0.2" transform="translate(-71.000000, -57.000000)">
            <g id="logo-didicast" transform="translate(71.000000, 57.000000)">
                <path d="M0,20.3372201 L5.57456897,20.3372201 C11.1462466,20.3353147 13.7012573,17.0493092 13.7012573,12.4123163 C13.7012573,7.77627615 11.1472104,4.49027071 5.57553276,4.49027071 L3.28267322,4.49027071 L0.000963791316,4.49027071 L0.000963791316,0 L5.82997367,0 C13.5518697,0 19.0560819,5.07430125 19.0551181,12.4123163 C19.0531905,19.7550951 13.5865662,24.8274908 5.82804609,24.8293963 L0,24.8274908 L0,20.3372201 Z" id="Fill-1" fill="#595959"></path>
                <polygon id="Fill-3" fill="#595959" points="32.335958 0 37.5328084 0.000952741504 37.5318401 24.8293963 32.335958 24.8274908"></polygon>
                <polygon id="Fill-5" fill="#595959" points="86.6141732 0 91.8110236 0.00190548301 91.8090874 24.8293963 86.6141732 24.8274908"></polygon>
                <path d="M59.1759033,20.3391252 L57.1743332,20.3391252 L57.1762746,4.49217609 L59.1759033,4.49217609 C64.795248,4.49217609 67.3627324,7.77818147 67.3617617,12.4151743 C67.3617617,17.0531198 64.7933066,20.3391252 59.1759033,20.3391252 M59.4389612,0.00190548297 L51.9704453,0 L51.971416,4.01580535 L51.9694746,4.49217609 L51.9685039,24.8274903 L53.561412,24.8293958 L57.1743332,24.8293958 L59.4379905,24.8293958 C67.2481905,24.8313013 72.7539641,19.7512837 72.7559055,12.4142215 C72.7549348,5.07525388 67.2142162,0.00190548297 59.4389612,0.00190548297" id="Fill-7" fill="#595959"></path>
                <path d="M105.091864,12.683436 C105.090913,5.35721551 110.735648,-0.000951210141 117.84077,0 C122.325563,0 125.530617,1.60469151 127.74972,5.06709642 L123.853454,7.83702035 C122.685906,5.94316096 120.685481,4.59339377 117.842672,4.59339377 C113.361681,4.59339377 110.335373,8.05579868 110.337275,12.683436 C110.334422,17.313927 113.358829,20.8514775 117.839819,20.8514775 C121.048676,20.8514775 122.835177,19.3209804 124.216649,17.2045378 L128.188976,19.9411694 C126.042132,23.2913315 122.6165,25.4087253 117.839819,25.4068229 C110.735648,25.4068229 105.091864,20.0096565 105.091864,12.683436" id="Fill-9" fill="#595959"></path>
                <path d="M153.17451,17.8058438 L151.359494,13.5352367 C150.613332,11.7994172 149.831315,9.12202423 149.831315,9.12202423 C149.831315,9.12202423 149.089029,11.8022504 148.346743,13.5352367 L146.52882,17.8058438 L153.17451,17.8058438 Z M149.68499,0 L150.130749,0.000944406691 L161.67979,24.8293963 L156.220208,24.8275075 L155.032163,22.0424522 L144.778731,22.0433966 L143.5965,24.8293963 L138.582677,24.8275075 L149.68499,0 Z" id="Fill-11" fill="#595959"></path>
                <path d="M171.496063,20.1939963 L175.686506,17.7882958 C176.789506,19.5737841 178.225325,20.8884057 180.760308,20.8884057 C182.892456,20.8884057 184.251545,19.828718 184.253463,18.3676045 C184.253463,16.6211173 182.85505,16.0018563 180.502302,14.9811696 L179.218026,14.4323008 C175.502353,12.8665503 173.041223,10.8965203 173.043141,6.74052764 C173.040264,2.91366598 175.987673,-0.000951012977 180.579033,2.32776829e-07 C183.851587,2.32776829e-07 186.203376,1.13008019 187.892406,4.08274701 L183.882279,6.63493936 C183.001797,5.06728636 182.048421,4.44612289 180.579033,4.44802538 C179.069361,4.44707413 178.113107,5.3945149 178.113107,6.63493936 C178.113107,8.16739627 179.069361,8.78475477 181.275362,9.73219554 L182.563474,10.2801131 C186.93807,12.137896 189.3992,14.0346801 189.396323,18.2991148 C189.398241,22.8955343 185.759299,25.4087256 180.871568,25.4068231 C176.093177,25.4068231 173.007653,23.1457119 171.496063,20.1939963" id="Fill-13" fill="#595959"></path>
                <polygon id="Fill-15" fill="#595959" points="207.58543 4.49217619 200.367454 4.49122345 200.367454 0 220 0.00190548301 219.99903 4.49217619 212.788817 4.49122345 212.787846 24.8293963 207.583489 24.8284436"></polygon>
                <polygon id="Fill-17" fill="#06B0D7" points="0.000971283131 7.50656168 8.0839895 13.0243045 0 17.3228346"></polygon>
                <path d="M122.414697,12.4117687 C122.414697,14.8041557 120.475384,16.7454068 118.085455,16.7454068 C115.698458,16.7444303 113.753281,14.8041557 113.753281,12.4107922 C113.755236,10.0184053 115.697481,8.0839895 118.084478,8.0839895 C120.474407,8.0839895 122.416652,10.0184053 122.414697,12.4117687" id="Fill-19" fill="#EC1D24"></path>
            </g>
        </g>
    </g>
</svg>