<?xml version="1.0" encoding="UTF-8"?>
<svg width="60px" height="64px" viewBox="0 0 60 64" version="1.1" xmlns="http://www.w3.org/2000/svg" xmlns:xlink="http://www.w3.org/1999/xlink">
    <!-- Generator: sketchtool 53.2 (72643) - https://sketchapp.com -->
    <title>03F9CBA3-7A7E-4A62-9F8D-2D5F6F49F76E</title>
    <desc>Created with sketchtool.</desc>
    <g id="FINAL" stroke="none" stroke-width="1" fill="none" fill-rule="evenodd">
        <g id="2-Dashboard-Unactivated" transform="translate(-533.000000, -372.000000)" fill="#BDBDBD" fill-rule="nonzero">
            <g id="ic-camera-gray" transform="translate(533.000000, 372.000000)">
                <path d="M20.8593302,34.6923251 C20.8593302,40.1231432 24.9516813,44.5256358 29.9999156,44.5256358 C35.0481499,44.5256358 39.1405854,40.1231432 39.1405854,34.6923251 C39.1405854,29.2615071 35.0482343,24.8590145 30,24.8590145 C24.9517657,24.8590145 20.8593302,29.2615071 20.8593302,34.6923251 Z M49.6874473,18.051317 L39.8436814,18.051317 C39.1405854,15.0256131 38.4374895,12 35.6249367,12 L24.3749789,12 C21.5625105,12 20.8593302,15.0256131 20.1562342,18.051317 L10.3124684,18.051317 C8.76562342,18.051317 7.5,19.4128565 7.5,21.0769301 L7.5,48.3077202 C7.5,49.9717938 8.76562342,51.3333333 10.3124684,51.3333333 L49.6874473,51.3333333 C51.2342922,51.3333333 52.5,49.9717938 52.5,48.3077202 L52.5,21.0769301 C52.4999156,19.4128565 51.2342922,18.051317 49.6874473,18.051317 Z M30,48.1186478 C23.1072461,48.1186478 17.5195187,42.1075416 17.5195187,34.6923251 C17.5195187,27.2771994 23.1071617,21.2660025 30,21.2660025 C36.8928383,21.2660025 42.4804813,27.2771087 42.4804813,34.6923251 C42.4803969,42.1075416 36.8929226,48.1186478 30,48.1186478 Z M49.6874473,27.128247 L44.0625105,27.128247 L44.0625105,24.1026339 L49.6874473,24.1026339 L49.6874473,27.128247 Z" id="ic-camera-on-copy"></path>
            </g>
        </g>
    </g>
</svg>