<?xml version="1.0" encoding="UTF-8"?>
<svg width="60px" height="60px" viewBox="0 0 60 60" version="1.1" xmlns="http://www.w3.org/2000/svg" xmlns:xlink="http://www.w3.org/1999/xlink">
    <!-- Generator: sketchtool 53.2 (72643) - https://sketchapp.com -->
    <title>B60F4885-74D1-48A2-9740-E8241773F4FC</title>
    <desc>Created with sketchtool.</desc>
    <g id="FINAL" stroke="none" stroke-width="1" fill="none" fill-rule="evenodd">
        <g id="2-Dashboard-Unactivated" transform="translate(-839.000000, -374.000000)" fill="#BDBDBD" fill-rule="nonzero">
            <g id="ic-mic-gray" transform="translate(839.000000, 374.000000)">
                <path d="M30.0002729,38.6533273 C32.2857336,38.6533273 34.2415816,37.8314567 35.8688173,36.1884503 C37.4957801,34.545444 38.3093525,32.568857 38.3093525,30.2605268 L38.3093525,16.8312192 C38.3093525,14.522889 37.4964168,12.5471289 35.8688173,10.9032957 C34.2415816,9.25983 32.2857336,8.4375 30.0002729,8.4375 C27.715085,8.4375 25.7589641,9.25983 24.1316375,10.9032957 C22.5042199,12.5468533 21.6906475,14.522889 21.6906475,16.8312192 L21.6906475,30.2605268 C21.6906475,32.5687652 22.5045837,34.545444 24.1316375,36.1884503 C25.7586912,37.8314567 27.715085,38.6533273 30.0002729,38.6533273 Z" id="Path"></path>
                <path d="M44.5042732,25.7687259 C44.1753696,25.4376274 43.7838959,25.2720324 43.3324972,25.2720324 C42.8815546,25.2720324 42.490993,25.4376274 42.1607213,25.7687259 C41.8311793,26.0997328 41.6662714,26.4917051 41.6662714,26.9445512 L41.6662714,30.2900466 C41.6662714,33.5135198 40.5245036,36.270599 38.2415152,38.561742 C35.9592565,40.8529766 33.2117351,41.9985939 29.999772,41.9985939 C26.7879001,41.9985939 24.0406523,40.8529766 21.7575727,38.561742 C19.4747667,36.2712398 18.3334549,33.5136113 18.3334549,30.2900466 L18.3334549,26.9445512 C18.3334549,26.4917051 18.1684559,26.0997328 17.8387315,25.7687259 C17.5088246,25.4376274 17.1186278,25.2720324 16.6669555,25.2720324 C16.2152832,25.2720324 15.8246304,25.4376274 15.4949059,25.7687259 C15.1649078,26.0997328 15,26.4917051 15,26.9445512 L15,30.2900466 C15,34.1406571 16.2805896,37.4904549 18.8410391,40.3388906 C21.4015798,43.1874178 24.5655664,44.8207577 28.3330901,45.2386357 L28.3330901,48.6888523 L21.6666363,48.6888523 C21.2152376,48.6888523 20.824676,48.8546304 20.4948603,49.1857289 C20.1649534,49.5165528 19.9999544,49.9087081 19.9999544,50.3617373 C19.9999544,50.8140341 20.1649534,51.2069218 20.4948603,51.5377457 C20.824676,51.8685696 21.2152376,52.0346223 21.6666363,52.0346223 L38.3324516,52.0346223 C38.7837591,52.0346223 39.174868,51.8686611 39.5042276,51.5377457 C39.8344993,51.2070134 39.9995896,50.8141257 39.9995896,50.3617373 C39.9995896,49.9087997 39.8344993,49.5166443 39.5042276,49.1857289 C39.1749592,48.8546304 38.7838503,48.6888523 38.3324516,48.6888523 L31.6668187,48.6888523 L31.6668187,45.2386357 C35.433704,44.8207577 38.5974169,43.1874178 41.1582313,40.3388906 C43.7190456,37.4904549 45,34.1406571 45,30.2900466 L45,26.9445512 C45,26.4917967 44.8346361,26.100099 44.5042732,25.7687259 Z" id="Path"></path>
            </g>
        </g>
    </g>
</svg>