<?xml version="1.0" encoding="UTF-8"?>
<svg width="60px" height="60px" viewBox="0 0 60 60" version="1.1" xmlns="http://www.w3.org/2000/svg" xmlns:xlink="http://www.w3.org/1999/xlink">
    <!-- Generator: sketchtool 53.2 (72643) - https://sketchapp.com -->
    <title>A1178F5D-885D-467B-8366-9061753DD67D</title>
    <desc>Created with sketchtool.</desc>
    <g id="FINAL" stroke="none" stroke-width="1" fill="none" fill-rule="evenodd">
        <g id="2-Dashboard-Unactivated" transform="translate(-227.000000, -374.000000)" fill="#C3C3C3" fill-rule="nonzero">
            <g id="ic-screen-gray" transform="translate(227.000000, 374.000000)">
                <path d="M52.5632857,8.84156753 L52.5632857,8.76784258 L52.3154553,8.76784258 L7.65964588,8.76784258 L7.4118154,8.76784258 L7.4118154,8.84156753 C5.95080676,8.94156988 4.86079935,10.0990929 4.6875,11.5039858 L4.6875,11.7512733 L4.6875,41.0537724 C4.6875,41.62199 4.83598321,42.1009139 5.08381369,42.5323078 C5.65400577,43.5320842 6.49568638,44.0372031 7.6597286,44.0372031 L23.9566505,44.0372031 L23.9566505,48.1307916 L20.8608375,48.1307916 C20.093109,48.1307916 19.4986798,48.725369 19.4986798,49.4883193 C19.4986798,50.2512697 20.093109,50.8457647 20.8608375,50.8457647 L39.114429,50.8457647 C39.8821576,50.8457647 40.5014856,50.2511873 40.5014856,49.4883193 C40.5014856,48.7252866 39.8822403,48.1307916 39.114429,48.1307916 L36.0186161,48.1307916 L36.0186161,44.0372031 L52.3154553,44.0372031 C53.4799938,44.0372031 54.3291193,43.5320842 54.8913702,42.5323078 C55.1465628,42.0798261 55.3125,41.5957126 55.3125,41.0537724 L55.3125,11.7513557 L55.3125,11.5040682 C55.1391179,10.0990929 53.9750757,8.94156988 52.5632857,8.84156753 Z M52.5632857,11.7513557 L52.5632857,41.0538547 C52.5632857,41.2274997 52.4892509,41.3011422 52.3154553,41.3011422 L7.65964588,41.3011422 C7.48634653,41.3011422 7.4118154,41.2274997 7.4118154,41.0538547 L7.4118154,11.7513557 L7.4118154,11.5040682 L52.5632857,11.5040682 L52.563203,11.7513557 L52.5632857,11.7513557 Z" id="Shape"></path>
            </g>
        </g>
    </g>
</svg>