<?xml version="1.0" encoding="UTF-8"?>
<svg width="60px" height="60px" viewBox="0 0 60 60" version="1.1" xmlns="http://www.w3.org/2000/svg" xmlns:xlink="http://www.w3.org/1999/xlink">
    <!-- Generator: sketchtool 53.2 (72643) - https://sketchapp.com -->
    <title>7FE9049A-D2EB-44C1-955A-DDF0064C9FF3</title>
    <desc>Created with sketchtool.</desc>
    <g id="FINAL" stroke="none" stroke-width="1" fill="none" fill-rule="evenodd">
        <g id="2-Dashboard-Unactivated" transform="translate(-1145.000000, -374.000000)" fill="#BDBDBD" fill-rule="nonzero">
            <g id="ic-speaker-gray" transform="translate(1145.000000, 374.000000)">
                <path d="M22.6361149,22.1703342 L15.0441892,22.1703342 C13.9842568,22.1703342 13.125,23.029591 13.125,24.0895234 L13.125,35.758814 C13.125,36.8178342 13.9842568,37.677091 15.0441892,37.677091 L22.6361149,37.677091 C22.9781757,37.677091 23.3138514,37.7683072 23.6093919,37.941618 L35.7739865,49.2670234 C37.0528378,50.0195572 38.6655405,49.0973613 38.6655405,47.6132734 L38.6655405,12.2341518 C38.6655405,10.750064 37.0528378,9.82786801 35.7739865,10.5804018 L23.6093919,21.9058072 C23.3138514,22.079118 22.9781757,22.1703342 22.6361149,22.1703342 Z" id="Path"></path>
                <path d="M42.3141892,38.5892531 C42.0806757,38.5892531 41.8471622,38.4998613 41.6692905,38.3219896 C41.3126351,37.9653342 41.3126351,37.3888477 41.6692905,37.0321923 C45.5888514,33.1126315 45.5888514,26.7347937 41.6692905,22.8152329 C41.3126351,22.4585775 41.3126351,21.882091 41.6692905,21.5254356 C42.0259459,21.1687802 42.6024324,21.1687802 42.9590878,21.5254356 C47.5901351,26.1564829 47.5901351,33.6909423 42.9590878,38.3219896 C42.7812162,38.4998613 42.5477027,38.5892531 42.3141892,38.5892531 Z" id="Path"></path>
            </g>
        </g>
    </g>
</svg>