<?xml version="1.0" encoding="UTF-8"?>
<svg width="24px" height="24px" viewBox="0 0 24 24" version="1.1" xmlns="http://www.w3.org/2000/svg" xmlns:xlink="http://www.w3.org/1999/xlink">
    <!-- Generator: sketchtool 53.2 (72643) - https://sketchapp.com -->
    <title>7A9D8722-3418-4BF3-921B-470A60844D6D</title>
    <desc>Created with sketchtool.</desc>
    <g id="FINAL" stroke="none" stroke-width="1" fill="none" fill-rule="evenodd">
        <g id="4-Stack-Rawfiles" transform="translate(-20.000000, -178.000000)" fill="#BDBDBD">
            <g id="ic-rec-blue" transform="translate(20.000000, 178.000000)">
                <path d="M12.0000222,9.15384615 C9.34905269,9.15384615 7.2,11.2202099 7.2,13.7692308 C7.2,16.3182942 9.34900839,18.3846154 11.9999778,18.3846154 C14.6509473,18.3846154 16.8,16.3182942 16.8,13.7692308 C16.8,11.2202099 14.6509916,9.15384615 12.0000222,9.15384615" id="Fill-1"></path>
                <path d="M21.6899729,9.17283315 C21.1929035,9.17283315 20.789974,8.79136067 20.789974,8.32076149 C20.789974,7.85016231 21.1929035,7.46868983 21.6899729,7.46868983 C22.1870423,7.46868983 22.5899718,7.85016231 22.5899718,8.32076149 C22.5899718,8.79136067 22.1870423,9.17283315 21.6899729,9.17283315 M12,19.95269 C8.3238646,19.95269 5.34374332,17.1313103 5.34374332,13.6508958 C5.34374332,10.1705239 8.3238196,7.34910157 12,7.34910157 C15.6761804,7.34910157 18.6562567,10.1704813 18.6562567,13.6508958 C18.6562117,17.1313103 15.6762254,19.95269 12,19.95269 M22.4999719,5.84025307 L17.2499634,5.84025307 C16.8749789,4.42010523 16.4999944,3 14.9999663,3 L8.99998875,3 C7.50000562,3 7.12497609,4.42010523 6.74999156,5.84025307 L1.49998313,5.84025307 C0.674999156,5.84025307 0,6.47930682 0,7.26035831 L0,20.0414332 C0,20.8224847 0.674999156,21.4615385 1.49998313,21.4615385 L22.4999719,21.4615385 C23.3249558,21.4615385 24,20.8224847 24,20.0414332 L24,7.26035831 C23.999955,6.47930682 23.3249558,5.84025307 22.4999719,5.84025307" id="Fill-3"></path>
            </g>
        </g>
    </g>
</svg>