<?xml version="1.0" encoding="UTF-8"?>
<svg width="24px" height="24px" viewBox="0 0 24 24" version="1.1" xmlns="http://www.w3.org/2000/svg" xmlns:xlink="http://www.w3.org/1999/xlink">
    <!-- Generator: sketchtool 53.2 (72643) - https://sketchapp.com -->
    <title>2745479C-3156-4586-89C6-629D3549B34A</title>
    <desc>Created with sketchtool.</desc>
    <g id="FINAL" stroke="none" stroke-width="1" fill="none" fill-rule="evenodd">
        <g id="4-Stack-Rawfiles" transform="translate(-20.000000, -314.000000)" fill="#C3C3C3" stroke="#C3C3C3" stroke-width="1.4">
            <g id="ic-settings-gray" transform="translate(20.000000, 314.000000)">
                <path d="M21.8739645,9.69056014 C22.5311353,9.80080339 23.0091507,10.3661236 22.9998671,11.0324927 L22.9998671,12.9673287 C22.9998671,13.6337871 22.5219409,14.1990181 21.8646809,14.3093506 L20.3205706,14.5667039 C20.1643564,15.0814997 19.9528871,15.58237 19.7000879,16.0649409 L20.6101471,17.3426021 C20.99613,17.8848918 20.9317698,18.6248159 20.463038,19.0935505 L19.0935305,20.4631555 C18.8361788,20.7205088 18.4960782,20.8628877 18.1330364,20.8628877 C17.8480125,20.8628877 17.5723614,20.7756751 17.3425034,20.6101763 L16.0694916,19.7002008 C15.5915655,19.9530016 15.0906089,20.1597411 14.5712637,20.3205981 L14.3093594,21.864807 C14.1990276,22.5219817 13.6337108,23 12.967435,23 L11.0279689,23 C10.3615145,23 9.79628696,22.5219817 9.68595511,21.864807 L9.4286034,20.3205981 C8.92773608,20.164383 8.44052635,19.9667485 7.97643632,19.7232314 L6.68494668,20.6424012 C6.45517793,20.8078108 6.1839901,20.8951127 5.89905543,20.8951127 C5.53601366,20.8951127 5.19591306,20.7526445 4.93856134,20.4952912 L3.56905388,19.1256862 C3.09568026,18.6569516 3.03596181,17.9170274 3.42194475,17.3747378 L4.32736218,16.1155546 C4.07001046,15.6375363 3.85863035,15.1365767 3.69768511,14.6218701 L2.13518618,14.3553225 C1.47801541,14.24499 1,13.6796697 1,13.0133899 L1,11.0785539 C1,10.4120955 1.47801541,9.84686454 2.13518618,9.73653202 L3.66099709,9.47917875 C3.81721128,8.9598304 4.01939707,8.45887079 4.27210699,7.9763892 L3.35303198,6.68489177 C2.96695977,6.1426021 3.03132002,5.40267797 3.50005185,4.93394332 L4.87429036,3.56433832 C5.12700028,3.30698505 5.47165341,3.16460611 5.83469518,3.16460611 C6.11971912,3.16460611 6.39545948,3.25181879 6.62522823,3.41731756 L7.88904564,4.32729301 C8.36706105,4.06993975 8.86792836,3.85855836 9.38263179,3.69761214 L9.64926709,2.13510377 C9.75950968,1.47792903 10.3248265,1 10.9911916,1 L12.9260159,1 C13.592381,1 14.1576978,1.47792903 14.2679404,2.13510377 L14.5253814,3.6609239 C15.0630259,3.82178085 15.5823712,4.03780406 16.078686,4.29970989 L17.3563395,3.38973443 C17.5861082,3.22432493 17.8572961,3.13693372 18.1421415,3.13693372 C18.5052725,3.13693372 18.8452838,3.27949119 19.1027248,3.53675519 L20.4722323,4.90636019 C20.9456059,5.37509484 21.0054136,6.11501897 20.6192521,6.6573979 L19.7093715,7.93032805 C19.9620814,8.40834635 20.168909,8.90930596 20.3297649,9.42856505 L21.8739645,9.69056014 Z M12,18.6 C15.6450793,18.6 18.6,15.6450793 18.6,12 C18.6,8.35492065 15.6450793,5.4 12,5.4 C8.35492065,5.4 5.4,8.35492065 5.4,12 C5.4,15.6450793 8.35492065,18.6 12,18.6 Z"></path>
            </g>
        </g>
    </g>
</svg>