<?xml version="1.0" encoding="UTF-8"?>
<svg width="24px" height="24px" viewBox="0 0 24 24" version="1.1" xmlns="http://www.w3.org/2000/svg" xmlns:xlink="http://www.w3.org/1999/xlink">
    <!-- Generator: sketchtool 53.2 (72643) - https://sketchapp.com -->
    <title>8ADC8228-C8F3-458B-A1EF-EE495AE79E4D</title>
    <desc>Created with sketchtool.</desc>
    <g id="FINAL" stroke="none" stroke-width="1" fill="none" fill-rule="evenodd">
        <g id="3-REC-Countdown" transform="translate(-20.000000, -245.000000)" fill="#C3C3C3">
            <g id="ic-files-gray" transform="translate(20.000000, 245.000000)">
                <path d="M1,3 L1,20.25 C1,20.8022847 1.44771525,21.25 2,21.25 L22,21.25 C22.5522847,21.25 23,20.8022847 23,20.25 L23,6.21240643 C23,5.66012168 22.5522847,5.21240643 22,5.21240643 L11.3112475,5.21240643 C10.9498676,5.21240643 10.6166026,5.01743057 10.4395259,4.70240781 L9.06044945,2.24900494 C9.04187595,2.21596233 9.02143876,2.1840025 8.99923681,2.15328016 L8.96051667,2.09970047 C8.9152674,2.03708599 8.84271024,2 8.76545697,2 L2,2 C1.44771525,2 1,2.44771525 1,3 Z"></path>
            </g>
        </g>
    </g>
</svg>